#!OML:ASF F:\VICON\USERDATA\INSTALL\rory3\rory3.ASF
:FULLY-SPECIFIED
:DEGREES
316
root -0.245189 16.1699 4.57696 0.254315 -0.986277 5.08293
lowerback 13.7224 0.14656 -8.66295
upperback -4.59264 -1.3437 0.841112
thorax -12.6791 0.110767 6.17656
lowerneck -11.1088 -4.5935 -2.86988
upperneck 19.8742 -6.01096 0.892319
head 8.09758 -2.98903 0.15334
rclavicle 2.93207e-015 1.59028e-015
rhumerus -46.601 -4.12624 -81.5739
rradius 21.8223
rwrist 11.9551
rhand -12.1214 26.7784
rfingers 7.12502
rthumb 13.94 -2.73426
lclavicle 2.93207e-015 1.59028e-015
lhumerus -34.0644 -0.437516 87.866
lradius 25.746
lwrist 1.79737
lhand -5.28758 19.5555
lfingers 7.12502
lthumb 20.5171 48.4914
rfemur -34.3171 0.345557 16.8042
rtibia 65.964
rfoot -9.29463 -5.943
rtoes 27.9969
lfemur -7.89664 -14.0117 -32.7521
ltibia 28.2811
lfoot -15.9556 8.89446
ltoes 14.8751
317
root -0.249863 16.1761 4.70518 0.33602 -0.88995 5.07771
lowerback 13.8279 0.0973875 -8.7712
upperback -4.6373 -1.43578 0.904097
thorax -12.7773 0.0868005 6.33579
lowerneck -11.4289 -4.37863 -2.68831
upperneck 20.1815 -5.69815 0.669818
head 8.2394 -2.8457 0.0716857
rclavicle 1.38652e-014 -6.75868e-015
rhumerus -46.8235 -3.80369 -81.8642
rradius 22.2891
rwrist 11.1926
rhand -9.46258 21.1015
rfingers 7.12502
rthumb 16.5011 -8.21677
lclavicle 1.38652e-014 -6.75868e-015
lhumerus -33.962 -0.969671 88.1414
lradius 26.111
lwrist 1.79885
lhand -6.01901 18.9612
lfingers 7.12502
lthumb 19.8141 47.9712
rfemur -34.6947 0.847137 16.7709
rtibia 63.8652
rfoot -9.73925 -6.02734
rtoes 26.1505
lfemur -7.21971 -14.1707 -32.8802
ltibia 27.8666
lfoot -16.1791 9.18205
ltoes 13.5184
318
root -0.256987 16.1742 4.82829 0.488249 -0.853902 5.0167
lowerback 13.9056 0.101029 -8.83714
upperback -4.70621 -1.44599 0.977398
thorax -12.9017 0.100884 6.4631
lowerneck -11.396 -4.59591 -2.77729
upperneck 20.0646 -5.97716 0.652567
head 8.20181 -2.98686 0.0529278
rclavicle 1.54058e-015 -6.75868e-015
rhumerus -47.0857 -3.59787 -82.0844
rradius 22.6439
rwrist 10.5435
rhand -11.0806 30.6492
rfingers 7.12502
rthumb 14.9429 1.20824
lclavicle 1.54058e-015 -6.75868e-015
lhumerus -33.9776 -1.55307 88.4992
lradius 25.8935
lwrist 0.365632
lhand -7.67446 16.6765
lfingers 7.12502
lthumb 18.2221 45.843
rfemur -35.1356 1.62567 16.7531
rtibia 61.6955
rfoot -9.93913 -6.27787
rtoes 25.2422
lfemur -6.62784 -14.1339 -32.9043
ltibia 27.4243
lfoot -16.3163 9.43941
ltoes 11.5285
319
root -0.261617 16.1721 4.95407 0.613069 -0.888022 4.91004
lowerback 13.9439 0.132392 -8.80808
upperback -4.7256 -1.3961 1.03372
thorax -12.9558 0.128784 6.50013
lowerneck -11.3741 -4.6562 -2.81649
upperneck 20.0841 -6.0466 0.618795
head 8.20596 -3.02605 0.0410247
rclavicle -1.963e-015 4.77083e-015
rhumerus -47.3335 -3.76179 -82.0199
rradius 22.8472
rwrist 10.5374
rhand -9.67736 23.1009
rfingers 7.12502
rthumb 16.2943 -6.23452
lclavicle -1.963e-015 4.77083e-015
lhumerus -33.7541 -1.48822 88.4363
lradius 27.2865
lwrist 2.03414
lhand -6.02883 19.0081
lfingers 7.12502
lthumb 19.8046 48.0191
rfemur -35.4533 2.48794 16.708
rtibia 59.4435
rfoot -9.88411 -6.42009
rtoes 26.5172
lfemur -5.85878 -14.2923 -32.9346
ltibia 26.8541
lfoot -16.5755 9.7669
ltoes 10.4713
320
root -0.266448 16.1725 5.08453 0.719219 -0.883355 5.01565
lowerback 13.9376 0.151118 -8.9764
upperback -4.73092 -1.40539 1.01503
thorax -12.9567 0.137613 6.57737
lowerneck -11.4733 -4.69512 -2.78831
upperneck 20.1263 -6.10734 0.633688
head 8.23873 -3.05026 0.0316432
rclavicle 1.21507e-014 5.96354e-015
rhumerus -47.6363 -3.89024 -82.019
rradius 23.1625
rwrist 10.389
rhand -10.4904 29.2371
rfingers 7.12502
rthumb 15.5114 -0.160665
lclavicle 1.21507e-014 5.96354e-015
lhumerus -33.5772 -1.55182 88.4235
lradius 28.1114
lwrist 2.53365
lhand -5.57087 19.5396
lfingers 7.12502
lthumb 20.2448 48.5045
rfemur -35.6418 3.34622 16.3569
rtibia 57.1133
rfoot -9.96117 -6.46546
rtoes 28.0286
lfemur -5.01001 -14.3934 -33.1655
ltibia 26.1573
lfoot -16.9028 9.83053
ltoes 10.2124
321
root -0.274291 16.176 5.22183 0.822581 -0.801083 5.22085
lowerback 13.7684 0.14539 -9.23773
upperback -4.67492 -1.4515 0.943836
thorax -12.7806 0.121249 6.64987
lowerneck -11.65 -4.71007 -2.65584
upperneck 19.9298 -6.16926 0.745957
head 8.20493 -3.05756 0.0386611
rclavicle -4.37326e-015 -1.55052e-014
rhumerus -47.7226 -3.70058 -82.4344
rradius 23.3739
rwrist 9.96089
rhand -11.0787 31.0522
rfingers 7.12502
rthumb 14.9447 1.61138
lclavicle -4.37326e-015 -1.55052e-014
lhumerus -33.3167 -1.97894 88.5064
lradius 28.6968
lwrist 3.12767
lhand -5.69323 19.6894
lfingers 7.12502
lthumb 20.1272 48.6668
rfemur -35.7239 4.19504 15.8609
rtibia 54.6913
rfoot -9.94578 -6.91083
rtoes 28.9513
lfemur -4.09559 -14.2144 -33.4353
ltibia 25.3039
lfoot -16.8712 9.71601
ltoes 9.39047
322
root -0.286005 16.1867 5.35692 0.924951 -0.831957 5.15978
lowerback 13.6538 0.166398 -9.29965
upperback -4.64197 -1.41757 0.973492
thorax -12.6782 0.136582 6.70613
lowerneck -11.6565 -4.7216 -2.67247
upperneck 19.6923 -6.21388 0.924669
head 8.13397 -3.06298 0.098603
rclavicle 3.70236e-015 -8.74653e-015
rhumerus -47.8064 -3.36627 -82.9182
rradius 23.6033
rwrist 9.2536
rhand -11.3639 31.3789
rfingers 7.12502
rthumb 14.6699 1.91783
lclavicle 3.70236e-015 -8.74653e-015
lhumerus -33.1362 -2.07536 88.5254
lradius 29.2644
lwrist 3.4979
lhand -5.72354 19.6711
lfingers 7.12502
lthumb 20.0981 48.6515
rfemur -35.7991 5.31818 15.6464
rtibia 52.1675
rfoot -10.3183 -8.24012
rtoes 25.7904
lfemur -3.08613 -14.1902 -33.4403
ltibia 24.2833
lfoot -16.8216 9.91449
ltoes 9.02523
